<svg xmlns="http://www.w3.org/2000/svg" width="418" height="105" viewBox="0 0 418 105" role="img" aria-label="CONTRIBUTIONS · 1Y">
  <style>text{font-family:ui-monospace,'SFMono-Regular',Menlo,Consolas,monospace}</style>
  <rect x="6.5" y="14.5" width="405" height="84" fill="#0000a8" stroke="#54fcfc"/>
  <rect x="9.5" y="17.5" width="399" height="78" fill="none" stroke="#54fcfc" stroke-opacity="0.35"/>
  <rect x="139" y="10" width="140" height="10" fill="#0000a8"/>
  <text x="209" y="19" fill="#54fcfc" font-size="12" font-weight="700" letter-spacing="1" text-anchor="middle">CONTRIBUTIONS · 1Y</text>
  <text x="24" y="92" fill="#9fc0f0" font-size="10">640 CONTRIBUTIONS IN THE LAST YEAR</text><rect x="24" y="30" width="6" height="6" rx="1" fill="#1f8a42"/><rect x="24" y="37" width="6" height="6" rx="1" fill="#14622f"/><rect x="24" y="44" width="6" height="6" rx="1" fill="#2fb257"/><rect x="24" y="51" width="6" height="6" rx="1" fill="#14622f"/><rect x="24" y="58" width="6" height="6" rx="1" fill="#14622f"/><rect x="24" y="65" width="6" height="6" rx="1" fill="#2fb257"/><rect x="24" y="72" width="6" height="6" rx="1" fill="#2fb257"/><rect x="31" y="30" width="6" height="6" rx="1" fill="#001b86"/><rect x="31" y="37" width="6" height="6" rx="1" fill="#1f8a42"/><rect x="31" y="44" width="6" height="6" rx="1" fill="#2fb257"/><rect x="31" y="51" width="6" height="6" rx="1" fill="#001b86"/><rect x="31" y="58" width="6" height="6" rx="1" fill="#1f8a42"/><rect x="31" y="65" width="6" height="6" rx="1" fill="#001b86"/><rect x="31" y="72" width="6" height="6" rx="1" fill="#1f8a42"/><rect x="38" y="30" width="6" height="6" rx="1" fill="#1f8a42"/><rect x="38" y="37" width="6" height="6" rx="1" fill="#001b86"/><rect x="38" y="44" width="6" height="6" rx="1" fill="#1f8a42"/><rect x="38" y="51" width="6" height="6" rx="1" fill="#14622f"/><rect x="38" y="58" width="6" height="6" rx="1" fill="#1f8a42"/><rect x="38" y="65" width="6" height="6" rx="1" fill="#001b86"/><rect x="38" y="72" width="6" height="6" rx="1" fill="#2fb257"/><rect x="45" y="30" width="6" height="6" rx="1" fill="#14622f"/><rect x="45" y="37" width="6" height="6" rx="1" fill="#1f8a42"/><rect x="45" y="44" width="6" height="6" rx="1" fill="#001b86"/><rect x="45" y="51" width="6" height="6" rx="1" fill="#2fb257"/><rect x="45" y="58" width="6" height="6" rx="1" fill="#001b86"/><rect x="45" y="65" width="6" height="6" rx="1" fill="#001b86"/><rect x="45" y="72" width="6" height="6" rx="1" fill="#2fb257"/><rect x="52" y="30" width="6" height="6" rx="1" fill="#1f8a42"/><rect x="52" y="37" width="6" height="6" rx="1" fill="#001b86"/><rect x="52" y="44" width="6" height="6" rx="1" fill="#14622f"/><rect x="52" y="51" width="6" height="6" rx="1" fill="#001b86"/><rect x="52" y="58" width="6" height="6" rx="1" fill="#001b86"/><rect x="52" y="65" width="6" height="6" rx="1" fill="#2fb257"/><rect x="52" y="72" width="6" height="6" rx="1" fill="#1f8a42"/><rect x="59" y="30" width="6" height="6" rx="1" fill="#001b86"/><rect x="59" y="37" width="6" height="6" rx="1" fill="#14622f"/><rect x="59" y="44" width="6" height="6" rx="1" fill="#2fb257"/><rect x="59" y="51" width="6" height="6" rx="1" fill="#001b86"/><rect x="59" y="58" width="6" height="6" rx="1" fill="#001b86"/><rect x="59" y="65" width="6" height="6" rx="1" fill="#1f8a42"/><rect x="59" y="72" width="6" height="6" rx="1" fill="#001b86"/><rect x="66" y="30" width="6" height="6" rx="1" fill="#1f8a42"/><rect x="66" y="37" width="6" height="6" rx="1" fill="#001b86"/><rect x="66" y="44" width="6" height="6" rx="1" fill="#14622f"/><rect x="66" y="51" width="6" height="6" rx="1" fill="#001b86"/><rect x="66" y="58" width="6" height="6" rx="1" fill="#14622f"/><rect x="66" y="65" width="6" height="6" rx="1" fill="#14622f"/><rect x="66" y="72" width="6" height="6" rx="1" fill="#001b86"/><rect x="73" y="30" width="6" height="6" rx="1" fill="#1f8a42"/><rect x="73" y="37" width="6" height="6" rx="1" fill="#001b86"/><rect x="73" y="44" width="6" height="6" rx="1" fill="#001b86"/><rect x="73" y="51" width="6" height="6" rx="1" fill="#14622f"/><rect x="73" y="58" width="6" height="6" rx="1" fill="#1f8a42"/><rect x="73" y="65" width="6" height="6" rx="1" fill="#1f8a42"/><rect x="73" y="72" width="6" height="6" rx="1" fill="#14622f"/><rect x="80" y="30" width="6" height="6" rx="1" fill="#14622f"/><rect x="80" y="37" width="6" height="6" rx="1" fill="#1f8a42"/><rect x="80" y="44" width="6" height="6" rx="1" fill="#001b86"/><rect x="80" y="51" width="6" height="6" rx="1" fill="#1f8a42"/><rect x="80" y="58" width="6" height="6" rx="1" fill="#14622f"/><rect x="80" y="65" width="6" height="6" rx="1" fill="#1f8a42"/><rect x="80" y="72" width="6" height="6" rx="1" fill="#001b86"/><rect x="87" y="30" width="6" height="6" rx="1" fill="#14622f"/><rect x="87" y="37" width="6" height="6" rx="1" fill="#14622f"/><rect x="87" y="44" width="6" height="6" rx="1" fill="#1f8a42"/><rect x="87" y="51" width="6" height="6" rx="1" fill="#001b86"/><rect x="87" y="58" width="6" height="6" rx="1" fill="#001b86"/><rect x="87" y="65" width="6" height="6" rx="1" fill="#001b86"/><rect x="87" y="72" width="6" height="6" rx="1" fill="#1f8a42"/><rect x="94" y="30" width="6" height="6" rx="1" fill="#001b86"/><rect x="94" y="37" width="6" height="6" rx="1" fill="#001b86"/><rect x="94" y="44" width="6" height="6" rx="1" fill="#001b86"/><rect x="94" y="51" width="6" height="6" rx="1" fill="#1f8a42"/><rect x="94" y="58" width="6" height="6" rx="1" fill="#001b86"/><rect x="94" y="65" width="6" height="6" rx="1" fill="#001b86"/><rect x="94" y="72" width="6" height="6" rx="1" fill="#001b86"/><rect x="101" y="30" width="6" height="6" rx="1" fill="#001b86"/><rect x="101" y="37" width="6" height="6" rx="1" fill="#001b86"/><rect x="101" y="44" width="6" height="6" rx="1" fill="#1f8a42"/><rect x="101" y="51" width="6" height="6" rx="1" fill="#14622f"/><rect x="101" y="58" width="6" height="6" rx="1" fill="#1f8a42"/><rect x="101" y="65" width="6" height="6" rx="1" fill="#2fb257"/><rect x="101" y="72" width="6" height="6" rx="1" fill="#001b86"/><rect x="108" y="30" width="6" height="6" rx="1" fill="#14622f"/><rect x="108" y="37" width="6" height="6" rx="1" fill="#001b86"/><rect x="108" y="44" width="6" height="6" rx="1" fill="#14622f"/><rect x="108" y="51" width="6" height="6" rx="1" fill="#14622f"/><rect x="108" y="58" width="6" height="6" rx="1" fill="#14622f"/><rect x="108" y="65" width="6" height="6" rx="1" fill="#14622f"/><rect x="108" y="72" width="6" height="6" rx="1" fill="#001b86"/><rect x="115" y="30" width="6" height="6" rx="1" fill="#001b86"/><rect x="115" y="37" width="6" height="6" rx="1" fill="#2fb257"/><rect x="115" y="44" width="6" height="6" rx="1" fill="#001b86"/><rect x="115" y="51" width="6" height="6" rx="1" fill="#2fb257"/><rect x="115" y="58" width="6" height="6" rx="1" fill="#1f8a42"/><rect x="115" y="65" width="6" height="6" rx="1" fill="#001b86"/><rect x="115" y="72" width="6" height="6" rx="1" fill="#1f8a42"/><rect x="122" y="30" width="6" height="6" rx="1" fill="#2fb257"/><rect x="122" y="37" width="6" height="6" rx="1" fill="#2fb257"/><rect x="122" y="44" width="6" height="6" rx="1" fill="#001b86"/><rect x="122" y="51" width="6" height="6" rx="1" fill="#001b86"/><rect x="122" y="58" width="6" height="6" rx="1" fill="#2fb257"/><rect x="122" y="65" width="6" height="6" rx="1" fill="#001b86"/><rect x="122" y="72" width="6" height="6" rx="1" fill="#001b86"/><rect x="129" y="30" width="6" height="6" rx="1" fill="#001b86"/><rect x="129" y="37" width="6" height="6" rx="1" fill="#14622f"/><rect x="129" y="44" width="6" height="6" rx="1" fill="#2fb257"/><rect x="129" y="51" width="6" height="6" rx="1" fill="#14622f"/><rect x="129" y="58" width="6" height="6" rx="1" fill="#001b86"/><rect x="129" y="65" width="6" height="6" rx="1" fill="#14622f"/><rect x="129" y="72" width="6" height="6" rx="1" fill="#2fb257"/><rect x="136" y="30" width="6" height="6" rx="1" fill="#001b86"/><rect x="136" y="37" width="6" height="6" rx="1" fill="#14622f"/><rect x="136" y="44" width="6" height="6" rx="1" fill="#001b86"/><rect x="136" y="51" width="6" height="6" rx="1" fill="#2fb257"/><rect x="136" y="58" width="6" height="6" rx="1" fill="#001b86"/><rect x="136" y="65" width="6" height="6" rx="1" fill="#1f8a42"/><rect x="136" y="72" width="6" height="6" rx="1" fill="#1f8a42"/><rect x="143" y="30" width="6" height="6" rx="1" fill="#14622f"/><rect x="143" y="37" width="6" height="6" rx="1" fill="#001b86"/><rect x="143" y="44" width="6" height="6" rx="1" fill="#001b86"/><rect x="143" y="51" width="6" height="6" rx="1" fill="#001b86"/><rect x="143" y="58" width="6" height="6" rx="1" fill="#14622f"/><rect x="143" y="65" width="6" height="6" rx="1" fill="#001b86"/><rect x="143" y="72" width="6" height="6" rx="1" fill="#2fb257"/><rect x="150" y="30" width="6" height="6" rx="1" fill="#001b86"/><rect x="150" y="37" width="6" height="6" rx="1" fill="#2fb257"/><rect x="150" y="44" width="6" height="6" rx="1" fill="#2fb257"/><rect x="150" y="51" width="6" height="6" rx="1" fill="#14622f"/><rect x="150" y="58" width="6" height="6" rx="1" fill="#14622f"/><rect x="150" y="65" width="6" height="6" rx="1" fill="#001b86"/><rect x="150" y="72" width="6" height="6" rx="1" fill="#1f8a42"/><rect x="157" y="30" width="6" height="6" rx="1" fill="#001b86"/><rect x="157" y="37" width="6" height="6" rx="1" fill="#001b86"/><rect x="157" y="44" width="6" height="6" rx="1" fill="#001b86"/><rect x="157" y="51" width="6" height="6" rx="1" fill="#1f8a42"/><rect x="157" y="58" width="6" height="6" rx="1" fill="#2fb257"/><rect x="157" y="65" width="6" height="6" rx="1" fill="#14622f"/><rect x="157" y="72" width="6" height="6" rx="1" fill="#14622f"/><rect x="164" y="30" width="6" height="6" rx="1" fill="#1f8a42"/><rect x="164" y="37" width="6" height="6" rx="1" fill="#14622f"/><rect x="164" y="44" width="6" height="6" rx="1" fill="#14622f"/><rect x="164" y="51" width="6" height="6" rx="1" fill="#1f8a42"/><rect x="164" y="58" width="6" height="6" rx="1" fill="#001b86"/><rect x="164" y="65" width="6" height="6" rx="1" fill="#14622f"/><rect x="164" y="72" width="6" height="6" rx="1" fill="#2fb257"/><rect x="171" y="30" width="6" height="6" rx="1" fill="#14622f"/><rect x="171" y="37" width="6" height="6" rx="1" fill="#14622f"/><rect x="171" y="44" width="6" height="6" rx="1" fill="#001b86"/><rect x="171" y="51" width="6" height="6" rx="1" fill="#1f8a42"/><rect x="171" y="58" width="6" height="6" rx="1" fill="#14622f"/><rect x="171" y="65" width="6" height="6" rx="1" fill="#001b86"/><rect x="171" y="72" width="6" height="6" rx="1" fill="#001b86"/><rect x="178" y="30" width="6" height="6" rx="1" fill="#001b86"/><rect x="178" y="37" width="6" height="6" rx="1" fill="#001b86"/><rect x="178" y="44" width="6" height="6" rx="1" fill="#001b86"/><rect x="178" y="51" width="6" height="6" rx="1" fill="#1f8a42"/><rect x="178" y="58" width="6" height="6" rx="1" fill="#2fb257"/><rect x="178" y="65" width="6" height="6" rx="1" fill="#001b86"/><rect x="178" y="72" width="6" height="6" rx="1" fill="#2fb257"/><rect x="185" y="30" width="6" height="6" rx="1" fill="#001b86"/><rect x="185" y="37" width="6" height="6" rx="1" fill="#001b86"/><rect x="185" y="44" width="6" height="6" rx="1" fill="#001b86"/><rect x="185" y="51" width="6" height="6" rx="1" fill="#001b86"/><rect x="185" y="58" width="6" height="6" rx="1" fill="#001b86"/><rect x="185" y="65" width="6" height="6" rx="1" fill="#001b86"/><rect x="185" y="72" width="6" height="6" rx="1" fill="#1f8a42"/><rect x="192" y="30" width="6" height="6" rx="1" fill="#001b86"/><rect x="192" y="37" width="6" height="6" rx="1" fill="#001b86"/><rect x="192" y="44" width="6" height="6" rx="1" fill="#001b86"/><rect x="192" y="51" width="6" height="6" rx="1" fill="#001b86"/><rect x="192" y="58" width="6" height="6" rx="1" fill="#001b86"/><rect x="192" y="65" width="6" height="6" rx="1" fill="#001b86"/><rect x="192" y="72" width="6" height="6" rx="1" fill="#001b86"/><rect x="199" y="30" width="6" height="6" rx="1" fill="#1f8a42"/><rect x="199" y="37" width="6" height="6" rx="1" fill="#001b86"/><rect x="199" y="44" width="6" height="6" rx="1" fill="#14622f"/><rect x="199" y="51" width="6" height="6" rx="1" fill="#14622f"/><rect x="199" y="58" width="6" height="6" rx="1" fill="#1f8a42"/><rect x="199" y="65" width="6" height="6" rx="1" fill="#001b86"/><rect x="199" y="72" width="6" height="6" rx="1" fill="#001b86"/><rect x="206" y="30" width="6" height="6" rx="1" fill="#001b86"/><rect x="206" y="37" width="6" height="6" rx="1" fill="#001b86"/><rect x="206" y="44" width="6" height="6" rx="1" fill="#14622f"/><rect x="206" y="51" width="6" height="6" rx="1" fill="#1f8a42"/><rect x="206" y="58" width="6" height="6" rx="1" fill="#1f8a42"/><rect x="206" y="65" width="6" height="6" rx="1" fill="#001b86"/><rect x="206" y="72" width="6" height="6" rx="1" fill="#001b86"/><rect x="213" y="30" width="6" height="6" rx="1" fill="#14622f"/><rect x="213" y="37" width="6" height="6" rx="1" fill="#1f8a42"/><rect x="213" y="44" width="6" height="6" rx="1" fill="#1f8a42"/><rect x="213" y="51" width="6" height="6" rx="1" fill="#001b86"/><rect x="213" y="58" width="6" height="6" rx="1" fill="#14622f"/><rect x="213" y="65" width="6" height="6" rx="1" fill="#001b86"/><rect x="213" y="72" width="6" height="6" rx="1" fill="#2fb257"/><rect x="220" y="30" width="6" height="6" rx="1" fill="#14622f"/><rect x="220" y="37" width="6" height="6" rx="1" fill="#2fb257"/><rect x="220" y="44" width="6" height="6" rx="1" fill="#14622f"/><rect x="220" y="51" width="6" height="6" rx="1" fill="#2fb257"/><rect x="220" y="58" width="6" height="6" rx="1" fill="#14622f"/><rect x="220" y="65" width="6" height="6" rx="1" fill="#1f8a42"/><rect x="220" y="72" width="6" height="6" rx="1" fill="#001b86"/><rect x="227" y="30" width="6" height="6" rx="1" fill="#14622f"/><rect x="227" y="37" width="6" height="6" rx="1" fill="#001b86"/><rect x="227" y="44" width="6" height="6" rx="1" fill="#001b86"/><rect x="227" y="51" width="6" height="6" rx="1" fill="#14622f"/><rect x="227" y="58" width="6" height="6" rx="1" fill="#14622f"/><rect x="227" y="65" width="6" height="6" rx="1" fill="#001b86"/><rect x="227" y="72" width="6" height="6" rx="1" fill="#14622f"/><rect x="234" y="30" width="6" height="6" rx="1" fill="#001b86"/><rect x="234" y="37" width="6" height="6" rx="1" fill="#001b86"/><rect x="234" y="44" width="6" height="6" rx="1" fill="#001b86"/><rect x="234" y="51" width="6" height="6" rx="1" fill="#1f8a42"/><rect x="234" y="58" width="6" height="6" rx="1" fill="#001b86"/><rect x="234" y="65" width="6" height="6" rx="1" fill="#001b86"/><rect x="234" y="72" width="6" height="6" rx="1" fill="#001b86"/><rect x="241" y="30" width="6" height="6" rx="1" fill="#1f8a42"/><rect x="241" y="37" width="6" height="6" rx="1" fill="#2fb257"/><rect x="241" y="44" width="6" height="6" rx="1" fill="#2fb257"/><rect x="241" y="51" width="6" height="6" rx="1" fill="#1f8a42"/><rect x="241" y="58" width="6" height="6" rx="1" fill="#2fb257"/><rect x="241" y="65" width="6" height="6" rx="1" fill="#1f8a42"/><rect x="241" y="72" width="6" height="6" rx="1" fill="#1f8a42"/><rect x="248" y="30" width="6" height="6" rx="1" fill="#1f8a42"/><rect x="248" y="37" width="6" height="6" rx="1" fill="#1f8a42"/><rect x="248" y="44" width="6" height="6" rx="1" fill="#001b86"/><rect x="248" y="51" width="6" height="6" rx="1" fill="#14622f"/><rect x="248" y="58" width="6" height="6" rx="1" fill="#001b86"/><rect x="248" y="65" width="6" height="6" rx="1" fill="#2fb257"/><rect x="248" y="72" width="6" height="6" rx="1" fill="#001b86"/><rect x="255" y="30" width="6" height="6" rx="1" fill="#2fb257"/><rect x="255" y="37" width="6" height="6" rx="1" fill="#001b86"/><rect x="255" y="44" width="6" height="6" rx="1" fill="#1f8a42"/><rect x="255" y="51" width="6" height="6" rx="1" fill="#001b86"/><rect x="255" y="58" width="6" height="6" rx="1" fill="#1f8a42"/><rect x="255" y="65" width="6" height="6" rx="1" fill="#001b86"/><rect x="255" y="72" width="6" height="6" rx="1" fill="#001b86"/><rect x="262" y="30" width="6" height="6" rx="1" fill="#14622f"/><rect x="262" y="37" width="6" height="6" rx="1" fill="#14622f"/><rect x="262" y="44" width="6" height="6" rx="1" fill="#001b86"/><rect x="262" y="51" width="6" height="6" rx="1" fill="#14622f"/><rect x="262" y="58" width="6" height="6" rx="1" fill="#001b86"/><rect x="262" y="65" width="6" height="6" rx="1" fill="#001b86"/><rect x="262" y="72" width="6" height="6" rx="1" fill="#1f8a42"/><rect x="269" y="30" width="6" height="6" rx="1" fill="#001b86"/><rect x="269" y="37" width="6" height="6" rx="1" fill="#001b86"/><rect x="269" y="44" width="6" height="6" rx="1" fill="#14622f"/><rect x="269" y="51" width="6" height="6" rx="1" fill="#1f8a42"/><rect x="269" y="58" width="6" height="6" rx="1" fill="#2fb257"/><rect x="269" y="65" width="6" height="6" rx="1" fill="#001b86"/><rect x="269" y="72" width="6" height="6" rx="1" fill="#001b86"/><rect x="276" y="30" width="6" height="6" rx="1" fill="#001b86"/><rect x="276" y="37" width="6" height="6" rx="1" fill="#2fb257"/><rect x="276" y="44" width="6" height="6" rx="1" fill="#001b86"/><rect x="276" y="51" width="6" height="6" rx="1" fill="#1f8a42"/><rect x="276" y="58" width="6" height="6" rx="1" fill="#001b86"/><rect x="276" y="65" width="6" height="6" rx="1" fill="#2fb257"/><rect x="276" y="72" width="6" height="6" rx="1" fill="#001b86"/><rect x="283" y="30" width="6" height="6" rx="1" fill="#001b86"/><rect x="283" y="37" width="6" height="6" rx="1" fill="#001b86"/><rect x="283" y="44" width="6" height="6" rx="1" fill="#001b86"/><rect x="283" y="51" width="6" height="6" rx="1" fill="#14622f"/><rect x="283" y="58" width="6" height="6" rx="1" fill="#14622f"/><rect x="283" y="65" width="6" height="6" rx="1" fill="#001b86"/><rect x="283" y="72" width="6" height="6" rx="1" fill="#001b86"/><rect x="290" y="30" width="6" height="6" rx="1" fill="#1f8a42"/><rect x="290" y="37" width="6" height="6" rx="1" fill="#2fb257"/><rect x="290" y="44" width="6" height="6" rx="1" fill="#001b86"/><rect x="290" y="51" width="6" height="6" rx="1" fill="#14622f"/><rect x="290" y="58" width="6" height="6" rx="1" fill="#2fb257"/><rect x="290" y="65" width="6" height="6" rx="1" fill="#001b86"/><rect x="290" y="72" width="6" height="6" rx="1" fill="#1f8a42"/><rect x="297" y="30" width="6" height="6" rx="1" fill="#001b86"/><rect x="297" y="37" width="6" height="6" rx="1" fill="#001b86"/><rect x="297" y="44" width="6" height="6" rx="1" fill="#001b86"/><rect x="297" y="51" width="6" height="6" rx="1" fill="#001b86"/><rect x="297" y="58" width="6" height="6" rx="1" fill="#14622f"/><rect x="297" y="65" width="6" height="6" rx="1" fill="#001b86"/><rect x="297" y="72" width="6" height="6" rx="1" fill="#001b86"/><rect x="304" y="30" width="6" height="6" rx="1" fill="#1f8a42"/><rect x="304" y="37" width="6" height="6" rx="1" fill="#14622f"/><rect x="304" y="44" width="6" height="6" rx="1" fill="#1f8a42"/><rect x="304" y="51" width="6" height="6" rx="1" fill="#001b86"/><rect x="304" y="58" width="6" height="6" rx="1" fill="#14622f"/><rect x="304" y="65" width="6" height="6" rx="1" fill="#14622f"/><rect x="304" y="72" width="6" height="6" rx="1" fill="#001b86"/><rect x="311" y="30" width="6" height="6" rx="1" fill="#001b86"/><rect x="311" y="37" width="6" height="6" rx="1" fill="#2fb257"/><rect x="311" y="44" width="6" height="6" rx="1" fill="#001b86"/><rect x="311" y="51" width="6" height="6" rx="1" fill="#1f8a42"/><rect x="311" y="58" width="6" height="6" rx="1" fill="#001b86"/><rect x="311" y="65" width="6" height="6" rx="1" fill="#001b86"/><rect x="311" y="72" width="6" height="6" rx="1" fill="#14622f"/><rect x="318" y="30" width="6" height="6" rx="1" fill="#001b86"/><rect x="318" y="37" width="6" height="6" rx="1" fill="#14622f"/><rect x="318" y="44" width="6" height="6" rx="1" fill="#1f8a42"/><rect x="318" y="51" width="6" height="6" rx="1" fill="#001b86"/><rect x="318" y="58" width="6" height="6" rx="1" fill="#001b86"/><rect x="318" y="65" width="6" height="6" rx="1" fill="#14622f"/><rect x="318" y="72" width="6" height="6" rx="1" fill="#2fb257"/><rect x="325" y="30" width="6" height="6" rx="1" fill="#2fb257"/><rect x="325" y="37" width="6" height="6" rx="1" fill="#001b86"/><rect x="325" y="44" width="6" height="6" rx="1" fill="#14622f"/><rect x="325" y="51" width="6" height="6" rx="1" fill="#001b86"/><rect x="325" y="58" width="6" height="6" rx="1" fill="#14622f"/><rect x="325" y="65" width="6" height="6" rx="1" fill="#001b86"/><rect x="325" y="72" width="6" height="6" rx="1" fill="#2fb257"/><rect x="332" y="30" width="6" height="6" rx="1" fill="#001b86"/><rect x="332" y="37" width="6" height="6" rx="1" fill="#14622f"/><rect x="332" y="44" width="6" height="6" rx="1" fill="#14622f"/><rect x="332" y="51" width="6" height="6" rx="1" fill="#2fb257"/><rect x="332" y="58" width="6" height="6" rx="1" fill="#001b86"/><rect x="332" y="65" width="6" height="6" rx="1" fill="#001b86"/><rect x="332" y="72" width="6" height="6" rx="1" fill="#001b86"/><rect x="339" y="30" width="6" height="6" rx="1" fill="#001b86"/><rect x="339" y="37" width="6" height="6" rx="1" fill="#2fb257"/><rect x="339" y="44" width="6" height="6" rx="1" fill="#1f8a42"/><rect x="339" y="51" width="6" height="6" rx="1" fill="#001b86"/><rect x="339" y="58" width="6" height="6" rx="1" fill="#1f8a42"/><rect x="339" y="65" width="6" height="6" rx="1" fill="#001b86"/><rect x="339" y="72" width="6" height="6" rx="1" fill="#2fb257"/><rect x="346" y="30" width="6" height="6" rx="1" fill="#1f8a42"/><rect x="346" y="37" width="6" height="6" rx="1" fill="#001b86"/><rect x="346" y="44" width="6" height="6" rx="1" fill="#14622f"/><rect x="346" y="51" width="6" height="6" rx="1" fill="#14622f"/><rect x="346" y="58" width="6" height="6" rx="1" fill="#001b86"/><rect x="346" y="65" width="6" height="6" rx="1" fill="#1f8a42"/><rect x="346" y="72" width="6" height="6" rx="1" fill="#001b86"/><rect x="353" y="30" width="6" height="6" rx="1" fill="#2fb257"/><rect x="353" y="37" width="6" height="6" rx="1" fill="#001b86"/><rect x="353" y="44" width="6" height="6" rx="1" fill="#1f8a42"/><rect x="353" y="51" width="6" height="6" rx="1" fill="#2fb257"/><rect x="353" y="58" width="6" height="6" rx="1" fill="#001b86"/><rect x="353" y="65" width="6" height="6" rx="1" fill="#1f8a42"/><rect x="353" y="72" width="6" height="6" rx="1" fill="#001b86"/><rect x="360" y="30" width="6" height="6" rx="1" fill="#14622f"/><rect x="360" y="37" width="6" height="6" rx="1" fill="#001b86"/><rect x="360" y="44" width="6" height="6" rx="1" fill="#1f8a42"/><rect x="360" y="51" width="6" height="6" rx="1" fill="#001b86"/><rect x="360" y="58" width="6" height="6" rx="1" fill="#001b86"/><rect x="360" y="65" width="6" height="6" rx="1" fill="#001b86"/><rect x="360" y="72" width="6" height="6" rx="1" fill="#14622f"/><rect x="367" y="30" width="6" height="6" rx="1" fill="#001b86"/><rect x="367" y="37" width="6" height="6" rx="1" fill="#1f8a42"/><rect x="367" y="44" width="6" height="6" rx="1" fill="#1f8a42"/><rect x="367" y="51" width="6" height="6" rx="1" fill="#001b86"/><rect x="367" y="58" width="6" height="6" rx="1" fill="#001b86"/><rect x="367" y="65" width="6" height="6" rx="1" fill="#001b86"/><rect x="367" y="72" width="6" height="6" rx="1" fill="#14622f"/><rect x="374" y="30" width="6" height="6" rx="1" fill="#2fb257"/><rect x="374" y="37" width="6" height="6" rx="1" fill="#001b86"/><rect x="374" y="44" width="6" height="6" rx="1" fill="#14622f"/><rect x="374" y="51" width="6" height="6" rx="1" fill="#001b86"/><rect x="374" y="58" width="6" height="6" rx="1" fill="#14622f"/><rect x="374" y="65" width="6" height="6" rx="1" fill="#2fb257"/><rect x="374" y="72" width="6" height="6" rx="1" fill="#001b86"/><rect x="381" y="30" width="6" height="6" rx="1" fill="#14622f"/><rect x="381" y="37" width="6" height="6" rx="1" fill="#1f8a42"/><rect x="381" y="44" width="6" height="6" rx="1" fill="#2fb257"/><rect x="381" y="51" width="6" height="6" rx="1" fill="#1f8a42"/><rect x="381" y="58" width="6" height="6" rx="1" fill="#2fb257"/><rect x="381" y="65" width="6" height="6" rx="1" fill="#001b86"/><rect x="381" y="72" width="6" height="6" rx="1" fill="#001b86"/><rect x="388" y="30" width="6" height="6" rx="1" fill="#1f8a42"/><rect x="388" y="37" width="6" height="6" rx="1" fill="#001b86"/><rect x="388" y="44" width="6" height="6" rx="1" fill="#1f8a42"/><rect x="388" y="51" width="6" height="6" rx="1" fill="#001b86"/><rect x="388" y="58" width="6" height="6" rx="1" fill="#14622f"/><rect x="388" y="65" width="6" height="6" rx="1" fill="#14622f"/><rect x="388" y="72" width="6" height="6" rx="1" fill="#001b86"/>
</svg>