<svg xmlns="http://www.w3.org/2000/svg" width="460" height="150" viewBox="0 0 460 150" role="img" aria-label="RPlante28 GitHub stats">
  <style>text{font-family:ui-monospace,'SFMono-Regular',Menlo,Consolas,monospace}</style>
  <rect x="0.5" y="0.5" width="459" height="149" rx="10" fill="#0d1b2a" stroke="#22304a"/>
  <text x="24" y="34" fill="#5aa0ff" font-size="15" font-weight="700">rplante28 @ github</text>
  <text x="24" y="58" fill="#c9d6e6" font-size="13">7 repositories &#183; 8 followers</text>
  <text x="24" y="76" fill="#6f8bb0" font-size="11" letter-spacing="0.06em">LANGUAGE MIX</text>
  <clipPath id="r"><rect x="24" y="84" width="412" height="12" rx="6"/></clipPath>
  <g clip-path="url(#r)"><rect x="24.0" y="84" width="128.1" height="12" fill="#e34c26"/><rect x="151.7" y="84" width="107.5" height="12" fill="#3178c6"/><rect x="258.8" y="84" width="66.3" height="12" fill="#b07219"/><rect x="324.8" y="84" width="62.2" height="12" fill="#563d7c"/><rect x="386.6" y="84" width="25.1" height="12" fill="#f1e05a"/><rect x="411.3" y="84" width="25.1" height="12" fill="#3572A5"/></g>
  <circle cx="28" cy="114" r="4" fill="#e34c26"/><text x="38" y="118" fill="#9fb3d1" font-size="12">HTML 31%</text><circle cx="166" cy="114" r="4" fill="#3178c6"/><text x="176" y="118" fill="#9fb3d1" font-size="12">TypeScript 26%</text><circle cx="304" cy="114" r="4" fill="#b07219"/><text x="314" y="118" fill="#9fb3d1" font-size="12">Java 16%</text><circle cx="28" cy="134" r="4" fill="#563d7c"/><text x="38" y="138" fill="#9fb3d1" font-size="12">CSS 15%</text><circle cx="166" cy="134" r="4" fill="#f1e05a"/><text x="176" y="138" fill="#9fb3d1" font-size="12">JavaScript 6%</text><circle cx="304" cy="134" r="4" fill="#3572A5"/><text x="314" y="138" fill="#9fb3d1" font-size="12">Python 6%</text>
</svg>