<svg xmlns="http://www.w3.org/2000/svg" width="420" height="112" viewBox="0 0 420 112" role="img" aria-label="RPLANTE28 @ GITHUB">
  <style>text{font-family:ui-monospace,'SFMono-Regular',Menlo,Consolas,monospace}</style>
  <rect x="6.5" y="14.5" width="407" height="91" fill="#0000a8" stroke="#54fcfc"/>
  <rect x="9.5" y="17.5" width="401" height="85" fill="none" stroke="#54fcfc" stroke-opacity="0.35"/>
  <rect x="140" y="10" width="140" height="10" fill="#0000a8"/>
  <text x="210" y="19" fill="#54fcfc" font-size="12" font-weight="700" letter-spacing="1" text-anchor="middle">RPLANTE28 @ GITHUB</text>
  <text x="22" y="42" fill="#d4d8dc" font-size="12">7 REPOS &#160;&#160; 11 COMMITS / 7D</text>
  <text x="22" y="57" fill="#fcfc54" font-size="10" letter-spacing="1">LANGUAGE MIX</text>
  <rect x="21" y="61" width="378" height="14" fill="none" stroke="#54fcfc" stroke-opacity="0.6"/>
  <g><rect x="22.0" y="62" width="124.4" height="12" fill="#e34c26"/><rect x="146.0" y="62" width="104.4" height="12" fill="#3178c6"/><rect x="250.0" y="62" width="64.4" height="12" fill="#b07219"/><rect x="314.0" y="62" width="60.4" height="12" fill="#563d7c"/><rect x="374.0" y="62" width="24.4" height="12" fill="#f1e05a"/></g><rect x="22" y="86" width="8" height="8" fill="#e34c26"/><text x="34" y="93" fill="#9fc0f0" font-size="10">HTML</text><rect x="68.4" y="86" width="8" height="8" fill="#3178c6"/><text x="80.4" y="93" fill="#9fc0f0" font-size="10">TYPESCRIPT</text><rect x="151.4" y="86" width="8" height="8" fill="#b07219"/><text x="163.4" y="93" fill="#9fc0f0" font-size="10">JAVA</text><rect x="197.8" y="86" width="8" height="8" fill="#563d7c"/><text x="209.8" y="93" fill="#9fc0f0" font-size="10">CSS</text><rect x="238.10000000000002" y="86" width="8" height="8" fill="#f1e05a"/><text x="250.10000000000002" y="93" fill="#9fc0f0" font-size="10">JAVASCRIPT</text>
</svg>